<?xml version="1.0" standalone="no"?>
<!DOCTYPE svg PUBLIC "-//W3C//DTD SVG 20010904//EN"
 "http://www.w3.org/TR/2001/REC-SVG-20010904/DTD/svg10.dtd">
<svg version="1.0" xmlns="http://www.w3.org/2000/svg"
 width="960.000000pt" height="960.000000pt" viewBox="0 0 960.000000 960.000000"
 preserveAspectRatio="xMidYMid meet">
<metadata>
Created by potrace 1.11, written by Peter Selinger 2001-2013
</metadata>
<g transform="translate(0.000000,960.000000) scale(0.100000,-0.100000)"
fill="#000000" stroke="none">
<path d="M2229 9596 c-2 -2 -35 -6 -74 -10 -326 -30 -666 -141 -960 -312 -368
-214 -688 -540 -892 -909 -48 -88 -56 -105 -106 -215 -60 -134 -137 -384 -153
-495 -2 -11 -8 -47 -13 -80 -6 -33 -14 -94 -18 -135 -10 -99 -10 -5218 0
-5295 8 -60 22 -155 33 -210 50 -273 187 -608 347 -850 97 -145 175 -241 302
-369 344 -348 760 -572 1245 -671 42 -9 93 -17 111 -20 19 -2 63 -7 99 -12 81
-10 5187 -11 5289 0 419 42 810 190 1152 434 288 206 537 483 706 788 48 88
56 105 106 215 58 130 134 373 153 490 2 14 9 52 14 85 6 33 14 101 19 150 11
112 12 5131 1 5235 -16 146 -22 186 -45 295 -82 380 -250 725 -499 1025 -343
415 -814 701 -1341 815 -109 23 -149 29 -295 45 -71 8 -5172 14 -5181 6z"/>
</g>
</svg>
