<?xml version="1.0" encoding="utf-8"?>
<!-- Generator: Adobe Illustrator 25.0.1, SVG Export Plug-In . SVG Version: 6.00 Build 0)  -->
<svg version="1.1" id="Livello_1" xmlns="http://www.w3.org/2000/svg" xmlns:xlink="http://www.w3.org/1999/xlink" x="0px" y="0px"
	 viewBox="0 0 520.1 200.2" style="enable-background:new 0 0 520.1 200.2;" xml:space="preserve">
<style type="text/css">
	.st0{fill:#FFFFFF;}
</style>
<g>
	<g>
		<path class="st0" d="M0,200.2C0,133.5,0,66.8,0,0c173.3,0,346.7,0,520.1,0c0,66.7,0,133.5,0,200.2
			C346.8,200.2,173.4,200.2,0,200.2z M90.6,148.9c-2.8,0.1-5.7-0.3-8.4,1.1c-2.3,1.2-4.5,2.4-4.6,5.4c0,1.1,0.2,2.1,0.4,3.2
			c1.2,7.1,2.4,14.2,3.8,21.2c0.3,1.3,1.4,2.5,2.3,3.6c0.8,1,1.8,1.7,2.7,2.5c2.3,2,4.6,4,7.1,5.8c1.2,0.9,2.5,1.8,4.2,1.4
			c5.7-1.2,10.9-3.6,15.9-6.5c3.1-1.9,5.6-4.3,7.9-7.2c4-5.3,3.8-9.4,0-14.1c-4.8-6-10.9-10.4-18-13.7
			C99.6,149.7,95.3,148.7,90.6,148.9z M400,23.2c-0.1,1.1,0.1,1.9-0.1,2.4c-1.2,2.9-2.4,5.7-3.7,8.5c-0.2,0.4-0.5,0.7-0.7,1
			c-0.5,0.6-1.2,1.1-1.4,1.8c-1.7,6-2.6,12.2-2.4,18.4c0,0.7,0.6,1.4,1.1,2c0.9,1,1.8,1.8,2.8,2.6c0.6,0.5,1.3,1,2,1
			c2.6,0,3.5-1.6,3.7-4c0.3-4.3,0.7-8.7,1.2-13c0.1-0.6,0.5-1.1,0.8-1.7c0.6,0.4,1.4,0.7,1.9,1.3c0.5,0.6,0.7,1.6,1.2,2.2
			c2.7,2.8,5.6,5.3,9,7.3c3.6,2.1,7,4.6,10.5,6.9c1.1,0.8,2.4,1.1,3.3-0.1c0.8-1.2,0.3-2.4-0.8-3.4c-4.1-3.4-8.4-6.3-13.1-8.8
			c-1.8-0.9-3.3-2.7-4.8-4.2c-0.2-0.2,0.1-1.4,0.4-1.5c1.7-0.5,3.5-1.2,5.2-1.1c5.5,0,8.7-3.6,11.6-7.3c0.9-1.2,1.4-3,1.3-4.5
			c-0.2-2.7-0.9-5.5-2.7-7.7c-2-2.6-4.3-4.8-7.7-5.5c-5.2-1.2-9.8,0-14,3.1c-0.5,0.4-0.9,1.1-1.5,1.9
			C401.3,20.5,400.9,22.6,400,23.2z M284.6,62.1c2.5,0,3.2-1.2,3.1-3.6c-0.2-3.2,0.2-6.4,0.3-9.7c0.1-1.1,0.4-2.2,0.5-3.3
			c0.1-1.3,0.4-1.5,1.7-1.1c2.9,0.8,5.9,0.9,8.8-0.2c2.8-1.1,4.8,0.2,4.9,3.2c0,0.4,0,0.9,0,1.3c-0.1,5,1.4,9.5,5,12.9
			c1,0.9,2.9,1.6,4.2,1.4c0.8-0.1,1.9-2.1,1.9-3.2c0-3.9-0.1-7.8-0.7-11.6c-0.4-2.6-1.3-5.2-2.3-7.7c-1.3-3.4-2.5-6.8-4.2-10
			c-1.1-2.1-2.9-4.1-4.8-5.5c-2-1.5-4.5-1.9-7.2-1.8c-3.2,0.1-5.8,1.1-7.9,3.4c-3.3,3.5-5.6,7.5-7.5,11.9c-2,4.6-2.9,9.3-3.8,14.1
			c-0.1,0.5,0.1,1.4,0.4,1.6c2.3,1.4,3.1,3.8,4.3,5.9C282.2,61.2,283,62.4,284.6,62.1z M165.3,41.5c0.2,0,0.5,0,0.7,0
			c0.4,0.7,0.8,1.3,1.1,2c1.3,2.6,2.3,5.4,3.9,7.8c1.2,1.8,3.1,3.2,4.9,4.5c3.3,2.2,4.6,1.5,5.3-2.4c0.4-1.9,0.3-4,1-5.8
			c1.4-4,2-8.3,4.6-11.9c0.4-0.5,0.7-1.1,1.1-1.6c0.4,0.6,1.1,1.2,1.2,1.8c0.8,5.2,1.6,10.4,2.3,15.5c0.5,3.7,1,7.4,3.7,10.2
			c1,1,2.6,1.6,4,1.8c1.7,0.1,2.4-1.5,2.6-2.9c0.3-2,0.6-4.1,0.5-6.1c-0.3-3.6-0.4-7.1-1.8-10.5c-0.8-1.9-1.2-3.9-1.9-5.8
			c-1.4-4-3.3-7.3-7.9-8.4c-5.3-1.3-9.5,2.3-11.1,5c-1.1,1.9-2.3,3.9-3.3,5.9c-0.8,1.7-1.3,1-2,0c-1.3-1.9-2.4-3.7-5-4.4
			c-3.2-0.9-7.6-0.1-9.1,2.8c-1.6,3.1-3,6.4-3.8,9.7c-0.7,3-0.4,6.2-0.9,9.2c-0.4,2.5-0.1,4.3,2.2,5.9c1.4,0.9,2.7,1.3,3.6-0.2
			c0.6-0.9,1-2.1,1-3.3c0.1-4.8-0.3-9.6,1.2-14.2C163.9,44.5,164.7,43,165.3,41.5z M281.3,167.1c0.2-1.6,1.9-2.6,0.2-3.9
			c-1.7-1.2-3.4-2.4-5.1-3.6c-2.4-1.7-5-3.2-7.3-5c-0.6-0.4-0.9-1.4-1.3-2.1c0.7-0.3,1.4-0.7,2.2-0.9c2.1-0.6,4.3-0.9,6.2-1.9
			c3.7-2,6.1-9.1,4.5-13c-1.5-3.5-3.7-6.6-7.6-7.5c-3.4-0.8-6.9-1.8-10.6-0.6c-4.1,1.4-8,3-10.2,7c-1,1.8-1.4,4.1-1.5,6.2
			c-0.2,4.4,0.3,8.8-0.2,13.2c-0.4,2.9,1,4.4,2.8,5.9c0.2,0.2,0.6,0.4,0.6,0.6c0.8,2.7,2.5,4.9,4.7,6.6c0.8,0.6,2,0.6,3,0.9
			c0.3-1.3,1.2-2.8,0.8-3.7c-1.5-3.4-1.4-6.9-1.3-10.4c0-1.1,0.7-1.3,1.5-0.6c0.7,0.6,1.2,1.6,2,2.1c4.4,3.2,8.9,6.3,13.5,9.3
			C279,166.4,280.1,166.6,281.3,167.1z M468,46c0.2,0,0.7,0,1.3,0c1.6-0.1,3.3-1.6,3.2-3.3c-0.1-0.9-1.1-2.3-2-2.5
			c-3.2-0.9-6.5-1.5-9.7-2c-2.9-0.4-5.9-0.5-8.9-0.9c-0.4,0-1-0.9-1-1.3c0.4-2.2,0.8-4.3,1.5-6.4c0.8-2.5,3.1-3.7,5.7-3.2
			c4.2,0.7,8.4,1.3,12.6,2c2,0.3,3.7-0.5,5.5-1.2c1.1-0.5,1.2-1.6,0.9-2.5c-0.7-1.9-3.6-3.5-5.7-3.3c-1.6,0.1-3.2,0.1-4.7-0.1
			c-5.7-0.9-11.3-1.9-17.1-1c-3.8,0.6-7.5,3.6-7.8,6.7c-0.5,5.7-1.1,11.4-2.8,16.9c-0.5,1.5-0.4,3.1,0.7,4.6c1.4,1.9,2.4,4,3.5,6.1
			c2.4,4.8,6.4,7.2,11.6,7.7c2.5,0.2,4.7-0.8,6.9-1.9c1.4-0.7,2-3.3,0.7-4c-2-1.1-4.1-2-6.2-2.6c-1.5-0.4-3.2-0.3-4.8-0.4
			c-2.3-0.2-3.3-1.5-3-3.7c0.1-0.8,0.3-1.6,0.4-2.4c0.1-2.7,1-3.3,3.6-2.4c0.2,0.1,0.5,0.2,0.7,0.2C457.8,45.3,462.7,45.6,468,46z
			 M52.6,128.1c0-3.8-0.2-7.2-2-10.3c-0.4-0.7-0.8-1.5-1.1-2.3c-1.2-3.3-3.3-5.9-6-8.1c-5.1-4.1-13.9-3.7-19.3,0.2
			c-1.4,1-2.7,2.6-2.4,4.6c0.3,2.1,0.6,4.1,1.2,6.1c1.1,4.3,2.5,8.5,3.6,12.8c0.4,1.6,1.3,2.7,2.7,3.3c1.8,0.8,2.6,2.3,3.3,4
			c0.1,0.4,0.3,0.8,0.6,1.1c2.8,2.9,8.8,3.7,12.3,1.7C50.4,138.1,53.1,133.9,52.6,128.1z M385.6,42c0.1,0,0.3,0,0.4-0.1
			c-0.5-2.1-0.8-4.3-1.4-6.4c-1.4-4.4-4.2-7.7-8.6-9.3c-4.5-1.6-9.2-1.9-13.8-0.3c-2.4,0.8-4.7,2-6.7,3.5c-3,2.2-4.7,5.4-5.7,8.9
			c-0.7,2.8-1.3,5.8,0.8,8.4c1.1,1.4,2.3,2.8,3.5,4.1c1.4,1.5,2.8,3,4.4,4.2c1.9,1.4,3.8,2.9,5.9,3.7c2.3,1,5.2,2.2,7.4,1.7
			c4.9-1.2,9-4.3,11.3-8.9C384.7,48.6,386.2,45.5,385.6,42z M450.7,123.9c0.7-3.8,1.3-7.5,2.1-11.2c0.2-0.7,0.9-1.6,1.6-1.8
			c0.4-0.2,1.4,0.5,1.9,1c2.6,3.1,4.9,6.3,7.5,9.4c2.1,2.5,4.1,5.1,7.2,6.7c3.2,1.6,7.1,0.8,8.7-2.4c1-2,2-4,2.6-6.1
			c1.3-4.1,2.5-8.3,3.4-12.4c0.5-2.4,0.7-4.9,0.7-7.4c0.1-2.2-1-3.2-3.1-3.6c-0.4-0.1-0.8-0.3-1.2-0.5c-1.1-0.6-4.6-0.5-5.1,0.6
			c-0.6,1.2-1.2,2.6-0.4,4.3c0.5,1,0,3.4-0.7,3.7c-1.7,0.8-1.7,2.2-2.2,3.4c-1.2,3.2-2.2,6.4-3.5,9.5c-0.6,1.6-1.7,1.8-2.7,0.4
			c-1.5-2.2-2.8-4.5-4.2-6.7c-1.6-2.6-2.7-5.6-5.7-7.1c-2.6-1.3-5.3-1.5-8.1-1.1c-0.8,0.1-1.9,0.7-2.3,1.4c-1,1.8-1.9,3.7-2.4,5.7
			c-0.7,3.2-1.1,6.4-1.5,9.2c1.3,1.1,2.6,1.8,3,2.8C447.1,123.7,448.6,124.1,450.7,123.9z M413,113.9c0.5,1,0.9,1.8,1.4,2.6
			c1.5,2.1,3.1,4.1,5.6,5.2c1.6,0.6,3.2,1.2,4.6,2.1c1.8,1.2,3.5,1.1,5.3,0.5c1.8-0.7,3.5-1.8,5.3-2.6c2.7-1.3,4.5-3.5,5.5-6.2
			c2-5.7,0.2-10.9-3-15.8c-1.3-2.1-2.8-4.1-4.6-5.8c-3.6-3.3-8.2-3.8-12.8-3.5c-1.8,0.1-4,0.8-5.2,2c-1.7,1.7-2.5,4.1-3.9,6.2
			c-0.5,0.8-1.7,1.1-2,1.9c-0.8,2.1-1,4.3,0.6,6.2c1.3,1.5,2.6,3,3.8,4.5C414.5,112.4,414.6,113.3,413,113.9z M235.1,162.4
			c0,1.4,0,2.7,0,4.1c0,0.3,0.1,0.6,0.3,0.8c1.4,1.6,2.7,3.3,4.3,4.6c1,0.8,2.6,1.7,3.7,1.5c1-0.2,2.2-1.9,2.3-3
			c0.4-3.2,0.4-6.5-0.5-9.7c-0.7-2.5-1.2-5.2-1.6-7.8c-0.4-3.2-2-5.8-3.9-8.2c-2.1-2.8-5.2-3.5-8.4-3.9c-2.9-0.4-5.8,0-8.3,1.5
			c-4.2,2.6-7,6.6-8.6,11.3c-1.3,4-2.2,8.2-3.2,12.3c-0.1,0.4-0.1,0.9,0.2,1.2c1.3,1.4,2.6,2.9,4.1,4.1c0.7,0.5,2,0.8,2.7,0.5
			c0.8-0.3,1.5-1.4,1.7-2.3c0.6-2.8,0.9-5.6,1.6-8.3c0.5-2,1.2-2,3.2-1.7c2.2,0.4,4.6,0.5,6.7,0.1C233.8,159,235,158.5,235.1,162.4z
			 M356.9,96.4c1.1,1,1.9,1.5,2.4,2.1c0.9,1,1.6,2.1,2.3,3.2c0.3,0.5,0.5,1.2,0.5,1.8c-0.1,0.6-0.6,1.1-0.9,1.6
			c-2.4,4.7-5.3,9.3-0.1,14.1c2.1,1.9,3.7,4.6,6.1,5.8c3.5,1.8,7.6,2.6,11.4,3.5c0.6,0.2,1.9-0.9,2.3-1.7c0.4-0.7,0.4-2.1-0.1-2.7
			c-1-1.3-2.4-2.3-3.7-3.5c-0.3,0.4-0.4,0.6-0.6,0.7c-1.6,1.4-4.7,1.2-6.9-0.7c-1.3-1.1-0.3-2.5,0.2-3.5c1.3-2.9,2.9-5.7,4.4-8.5
			c0.7-1.4,1.7-2.2,3.4-2c0.7,0.1,1.4,0,2.1,0c1.8-0.1,3-1.5,2.4-3.2c-0.3-0.7-1.4-1.1-2.1-1.8c-0.5-0.5-0.9-1.1-1.4-1.6
			c1.4-1.1,0.8-2.7,1-4.2c0.4-2.5,0.3-4.8-1.4-6.8c-0.7-0.8-1.3-1.7-2-2.4c-3-3.2-6.8-4.8-11-5.7c-1.5-0.3-3.1-0.3-4.6-0.4
			c-1.8-0.1-3.5,0-5.7,0c1.5,1.1,3.2,1.6,3.5,2.6c0.4,1.3,1.4,1.6,2.2,1.9c1.6,0.6,3.3,0.8,5,1.3c1.2,0.3,2.3,0.8,3.4,1.3
			c1.1,0.5,1.6,1.4,1.1,2.6c-0.8,1.9-1.4,3.9-2.4,5.6c-2,3.1-2.3,3.1-6,1.9C360.3,97.4,358.8,97,356.9,96.4z M311.4,10.9
			c1.8,1.9,3.3,3.6,5,5c1,0.9,2.3,1.7,3.7,2c2.8,0.7,5.8,1,8.6,1.7c0.5,0.1,0.9,0.9,1.1,1.5c0.1,0.5-0.2,1.1-0.2,1.6
			c0.1,6,0,12.1,0.5,18.1c0.3,4.2,0,8.6,3,12.2c0.8,1,1.9,1.9,3.1,2.3c0.5,0.2,1.9-0.6,2.2-1.2c1.1-2.8,2.3-5.5,2.1-8.6
			c-0.2-3.4-0.3-6.8-0.1-10.2c0.1-4.4-0.2-8.7-1.7-12.9c-0.8-2-0.3-2.5,1.9-2.5c2.2,0,4.5,0.3,6.7-0.1c2.5-0.4,5.3,0.6,7.4-1.4
			c0.6-0.6,1-1.5,1.1-2.4c0.1-0.5-0.5-1.4-1-1.6c-1.5-0.7-3.1-1.4-4.7-1.6c-4.7-0.4-9.4-0.6-14.2-0.8c-3.6-0.1-7.2,0.1-10.7-0.1
			c-2.2-0.1-4.3-0.5-6.4-0.7C316.2,11.1,314,11,311.4,10.9z M342.9,167.4c3.7,0.2,6.9-0.9,9.5-3.5c1.3-1.3,2.1-3,3.2-4.5
			c2.1-2.9,2.2-7.1,0.2-10.1c-0.8-1.2-1.8-2.2-2.7-3.3c-4-5.5-8.6-10-15.8-10.7c-1.1-0.1-2.2-0.2-3.3-0.5c-4.1-1.3-8.7,0.6-9.1,5
			c-0.1,0.7-0.6,1.3-0.8,2c-0.7,2.4-2.1,5-1.8,7.3c0.4,3.1,1.9,6.3,3.6,9C329.7,164.6,335.9,167,342.9,167.4z M257.1,110.8
			c-0.1,0-0.3,0-0.4-0.1c0.6-3.3,1.2-6.5,1.9-9.8c0.3-1.4,1.2-1.4,2.2-0.6c3.1,2.5,6.1,5.2,9.4,7.4c3.1,2.1,5.8,5,9.7,5.9
			c1.7,0.4,3.3-0.4,3.3-2.2c0.2-3.6,0.3-7.2,0.4-10.8c0-0.5-0.1-1,0-1.5c1.2-4.6,0.8-9.2,0.7-13.8c-0.1-2.4-0.8-3.1-3.3-3.4
			c-0.4,0-0.7-0.2-1-0.4c-1.4-0.8-4.6,0.2-5.1,1.8c-0.4,1.2-0.7,2.5-0.9,3.8c-0.7,4.8-1.3,9.7-1.9,14.5c-0.2,1.3-1.1,1.6-2.1,0.7
			c-0.9-0.8-1.6-1.8-2.4-2.6c-1.5-1.5-3.1-2.8-4.6-4.3c-2.3-2.1-5.2-1.7-7.9-1.8c-2-0.1-3.9,0.8-4.4,3c-0.9,3.5-1.6,7.1-2.6,10.6
			c-0.7,2.5-0.2,4.3,2.2,5.4c0.2,0.1,0.3,0.4,0.4,0.6c0.9,1.6,3.3,2.9,4.8,2.2c1.6-0.7,1.6-2.2,1.5-3.6
			C257.1,111.6,257.1,111.2,257.1,110.8z M351.5,111.3c0.1,0,0.2-0.1,0.4-0.1c-0.6-2-1-4.1-1.7-6.1c-1.3-3.6-2.7-7.1-4.2-10.6
			c-1.1-2.5-2.2-5-3.8-7.2c-2.4-3.3-6.4-3-9.8-3.5c-1.6-0.2-3.7,0.4-4.9,1.4c-2,1.9-3.7,4.2-4.9,6.6c-1.7,3.3-3,6.9-4.2,10.4
			c-0.6,1.6-1.4,3.9-0.7,5.1c1.2,2.3,3.3,4.1,5.1,6c1,1,3.5,0,3.7-1.4c0.3-2.1,0.6-4.3,0.8-6.4c0.1-1.3,0.6-1.7,2-1.2
			c1.4,0.5,2.9,1,4.4,1.1c1.5,0.1,3-0.2,4.4-0.4c2.3-0.3,2.5-0.2,3.2,2.1c0.6,2.4,1.3,4.6,3.8,5.8c0.4,0.2,0.6,0.7,0.7,1.2
			c0.6,1.8,2.2,2.2,3.6,2c0.9-0.2,1.7-1.6,2.2-2.7C351.8,112.9,351.5,112.1,351.5,111.3z M199.9,119.1c1.3-0.2,2.6-0.1,3.7-0.5
			c3.8-1.3,7.9-2,10.1-6.2c1.9-3.7,1.1-7-2-8.7c-4.1-2.3-8.4-4.2-12.6-6.2c-1.2-0.6-2.5-1.3-2-2.9c0.5-1.3,1.2-2.7,2.2-3.7
			c2.2-2.3,4.5-4.7,7.9-5.4c0.5-0.1,1.2-0.7,1.2-1.1c0-0.5-0.4-1.4-0.9-1.6c-2.4-1-4.8-2.1-7.3-2.8c-3.7-1-7.1-1-10.2,2.2
			c-3,3-3,7.1-1.8,9.1c0.8,1.4,1.8,2.6,2.7,3.9c1.7,2.4,3.5,4.7,6.3,5.9c2.1,0.9,4.2,1.7,6.3,2.6c0.5,0.2,1.1,0.8,1.2,1.2
			c0,0.4-0.5,1.1-1,1.3c-2.7,1.4-5.5,2.5-8.7,2.5c-1.6,0-3.2,0.4-4.8,0.7c-1.1,0.2-1,0.8-0.4,1.6c0.9,1.2,2,2.2,2.6,3.6
			C194.1,117.9,196.9,118.6,199.9,119.1z M181.9,115.5c-2.6-0.3-4.9-0.8-7.2-0.9c-2.3-0.1-4.7,0.1-7.1,0.2c-1.3,0-2-0.5-2-1.9
			c0-1.2-0.1-2.5-0.4-3.6c-0.5-1.6-0.3-2,1.5-1.6c4.3,1,9.4-1.4,11.6-4.8c0.8-1.2,0.7-2.3,0-3c-0.7-0.6-2.1-0.8-3-0.6
			c-3,0.7-5.9,1.8-8.9,2.6c-1.1,0.3-2.2,0.3-2.5-1.1c-0.9-3.7,2.5-8.1,6.4-8.4c3-0.2,5.9-0.5,8.9-0.7c1.5-0.1,2.2-1.5,1.1-2.5
			c-0.9-0.8-2.2-1.7-3.3-1.7c-4.4-0.1-8.8-0.2-13.2,0.9c-5.7,1.4-8.7,5.2-8.1,11c0.3,3.3,0.4,6.5,0.8,9.8c0.1,0.9,0.5,1.9,1,2.7
			c1.3,2.1,2.8,4.2,4.2,6.3c0.7,1,1.4,2.1,2.4,2.7c3.2,2,6.7,2.1,10.2,0.6C177.1,120.3,179.6,118.5,181.9,115.5z M212.7,34.9
			c-0.3,0-0.7,0-1,0c-0.3,1.3-1,2.6-1,3.9c0,5-0.2,10.1,1.5,15c1.3,3.8,3.4,7.3,6.5,9.7c4.7,3.7,10.1,4.6,15.5,1.4
			c1.8-1.1,3.5-3,4.3-5c1-2.4,1.2-5.2,1.3-7.8c0.2-3.7,0.1-7.5,0-11.2c0-0.5,0.1-1.2-0.1-1.5c-1.6-1.7-0.9-4.3-2.7-6.2
			c-1.2-1.3-1.7-1.2-2.7-0.6c-2.2,1.3-2.6,3.6-2.9,5.8c-0.7,4.6-1.1,9.3-1.5,14c-0.5,5.3-2.9,6.6-6,7.3c-1.6,0.4-2.9-0.1-3.7-1.5
			c-0.6-1-0.9-2.1-1.2-3.3c-1.5-5.1-3-10.2-4.6-15.3C213.9,38.1,213.3,36.5,212.7,34.9z M236.4,117.4c1-0.4,2.1-0.6,3.1-1.2
			c1.6-0.8,3-2.1,4.6-2.7c1.5-0.6,1.6-1.9,2.1-2.9c0.4-1,0.1-2.2-1.4-2.2c-3.4-0.1-6.7,0-10.1-0.1c-0.8,0-2.1-0.1-2.3-0.5
			c-0.7-1.4-1-2.9-1.3-4.4c0-0.2,0.6-0.6,1-0.7c0.6-0.2,1.2-0.3,1.8-0.4c2.7-0.7,5.2-1.8,6.4-4.4c0.4-0.9,0-2.1,0-3.2
			c0-1.1-0.6-1.2-1.5-1c-2.4,0.5-4.7,1-7.1,1.6c-1.2,0.3-1.6-0.1-1.6-1.3c-0.1-2.2,3-5.2,5.7-5.5c3.2-0.3,6.4-0.6,9.6-0.7
			c1.1-0.1,1.5-0.4,1.6-1.5c0.3-2.1-1.4-2.5-2.6-2.7c-2.4-0.4-5-0.6-7.4-0.4c-3.1,0.2-6.2,0.7-9.2,1.4c-2.8,0.7-5.2,2.6-5.7,5.3
			c-0.6,3.1-0.2,6.4,0.1,9.5c0.2,2.2,0.7,4.5,2.2,6.4c1.3,1.6,2.2,3.5,3.3,5.3C229.7,114.1,231.8,117.2,236.4,117.4z M122.1,111.6
			c0.1,4,0.8,7.7,2.6,11.2c0.8,1.5,3.1,2.5,4,1.6c0.7-0.8,1.1-2.3,1.1-3.4c-0.3-3.5-0.9-7-1.2-10.6c-0.1-1,0.5-1.4,1.4-0.7
			c2.4,1.8,4.8,3.7,7.3,5.4c4.6,3,9.2,5.8,13.9,8.6c0.6,0.4,1.7-0.1,2.6-0.1c-0.1-0.9,0.1-2.1-0.3-2.8c-0.6-0.9-1.6-1.6-2.5-2.1
			c-4.6-2.7-9.2-5.3-13.7-8c-0.4-0.2-0.8-0.7-0.8-1.1c0-0.3,0.5-0.8,0.8-1c2.8-1.2,5.2-2.8,7-5.2c2.2-2.9,2.7-6.3,0.5-8.9
			c-6.1-6.9-14-5.8-18.7,1.5C123.2,100.7,122.4,106.2,122.1,111.6z M288.7,76.5c0.9,1.1,1.8,2.1,2.6,3.2c1.6,2.6,4.2,3.7,6.9,4.4
			c2.5,0.6,2.7,0.7,2.4,3.3c-0.1,0.6,0.1,1.2,0,1.8c-0.9,6.3,0.7,12.2,2.6,18c0.4,1.3,1,2.8,2,3.7c0.8,0.7,2.8,1.3,3.5,0.8
			c1.3-0.9,2.7-2.6,2.8-4c0.3-3.8-0.2-7.6,0.1-11.4c0.3-3.8-0.6-7.2-2.6-10.4c-0.7-1.1-0.3-1.6,0.9-1.7c1.8-0.1,3.6-0.1,5.4-0.4
			c2.1-0.3,4.2-0.7,6.2-1.5c0.8-0.3,1.7-1.8,1.5-2.6c-0.2-0.8-1.5-1.8-2.4-2c-2.3-0.5-4.7-0.7-7-0.8c-2.2-0.1-4.4,0.4-6.6,0.3
			C300.7,77,294.6,78,288.7,76.5z M197,171.5c-2.8-0.2-4.7-0.4-6.6-0.5c-3.1-0.1-4-0.6-4.6-3.7c-0.2-0.9,0.1-1.9,0.2-2.9
			c0.3-1.5,0.7-2.9,1-4.3c1-4.3,2.8-8.1,6.3-11c0.6-0.5,1-1.4,1.1-2.2c0-0.4-0.9-1.1-1.4-1.2c-3.6-0.7-7.1-1.8-10.6,0.8
			c-3.1,2.3-6.2,4.4-6.1,8.8c0,0.2-0.2,0.5-0.2,0.7c-0.1,1.4-0.5,2.8-0.2,4.1c0.4,1.9,1.1,3.7,2,5.5c1.8,3.6,3.7,7.2,7.1,9.5
			c5.4,3.7,11.4,4.5,17.7,2.9c1.1-0.3,2.1-1,2.9-1.7c1.1-0.9,1.1-3.1,0.2-4.5c-0.9-1.4-2-2-3.8-1.5
			C200.1,170.9,198.1,171.2,197,171.5z M113.2,69.8c-0.3,0.4-0.7,1.3-1,1.3c-2.4-0.3-4.9,1.9-7.2-0.4c-0.2-0.2-0.7-0.1-1.1,0
			c-0.9,0.2-1.7,0.6-2.6,0.8c0.6,1.4,1.3,2.8,1.6,4.2c0.5,2.3,2.1,3.8,4.5,3.6c5.7-0.4,10.9-2.3,15.5-5.7c0.2-0.2,0.5-0.4,0.5-0.7
			c0.5-1.6,0.9-3.3,1.4-4.9c0.7-2.5-0.2-7-2-8.1c-3.1-1.9-6.3-3.5-9.4-5.3c-1.5-0.8-3.1-1.5-4.4-2.5c-1.8-1.4-3.3-3.1-4.9-4.8
			c-1.6-1.8-2.3-4-2.3-6.4c0-2.7,1.1-5.2,1.8-7.7c0.1-0.4,0.3-0.8,0.6-1.1c1.5-2.3,4-3,6.4-3.9c-0.1-0.1-0.1-0.3-0.2-0.3
			c-2.8-0.4-5.6-0.8-8.4-1.2c-0.1,0-0.4,0.1-0.5,0.2c-2.5,2.2-5,4.5-5.7,7.9c-0.3,1.2-0.7,2.6-0.3,3.6c1.7,4.5,3.7,8.7,7,12.4
			c4.5,4.9,9.9,7.8,15.9,10c0.5,0.2,1.1,0.6,1.4,1c1.2,2.1,0.7,4.3-1.4,5.5C116.9,68.4,115,69,113.2,69.8z M96.5,114.2
			c0.6,0.7,0.8,0.9,0.9,1c1.6,2.2,3.7,3.8,6.4,4.5c1,0.2,2.1,0.3,3.1,0.4c3.4,0.5,6.3-0.5,8.2-3.6c2.9-4.6,3.3-11.3-0.8-16.4
			c-4.5-5.6-11.9-6-17-1c-3.8,3.7-5.3,8.3-5.5,13.4c-0.2,6.1,1.5,11.9,3.2,17.7c0.5,1.7,1.6,2.8,3.6,2.2c1.4-1.7,0.8-3.5,0.3-5.4
			c-1-3.4-1.9-6.9-2.8-10.4C96,116.1,96.4,115.3,96.5,114.2z M492.6,132.5c0.9,1.2,1.9,2.6,3.1,3.9c1.7,1.9,3.3,1.5,5.2,0.1
			c2.2-1.5,1.9-3.8,2.3-5.7c1-4.7,1.3-9.5,2-14.2c0.3-2.4,1-4.7,1.4-7.1c0.3-1.8,0.7-3.7,0.3-5.3c-0.7-3.2-2.6-5.8-5.1-8
			c-0.9-0.8-1.5-0.7-2,0.4c-1,2.2-2.2,4.3-2.9,6.6c-1.7,5.4-2.1,11.1-2.7,16.7C493.7,124,493.1,128.2,492.6,132.5z M40.3,39.9
			c-0.2,0-0.3,0-0.5,0c0.5,5.2,0.9,10.3,1.5,15.5c0.7,5.7,3.6,10,8.3,13.3c1.6,1.1,3.1,1.7,5,1.6c1.2-0.1,2.5-0.1,3.7,0
			c3.1,0.2,5.7-1.3,8.4-2.4c0.6-0.3,1.2-1.5,1.2-2.2c-0.1-0.7-1-1.9-1.6-1.9c-3.2-0.2-6.5-0.5-9.6,0.1c-4.7,0.9-5.2,1-6.2-3.5
			c-0.6-2.9-0.9-6-1.3-8.9c-0.5-3.5-0.9-7.1-1.3-10.6c-0.2-1.8-0.7-3.6-0.9-5.4c-0.3-2.4-4.1-5.1-6.4-4.3c-0.3,0.1-0.6,0.7-0.6,1.1
			C39.9,34.8,40.1,37.4,40.3,39.9z M251.7,21.8c-2.7,2.4-2.9,5.4-3,8.1c-0.3,4.7-0.2,9.5,0,14.3c0,1.5,0.5,3,0.9,4.5
			c1.2,4.8,3.8,8.9,7,12.5c1.5,1.7,3.8,3.2,6,3.7c4.5,1,8.3-1.9,9.6-6.3c0.3-1.1,0-1.6-1-1.7c-2.9-0.2-5.7-0.4-8.6-0.4
			c-1.6,0-2.8-0.1-3.2-2c-0.2-1.2-0.6-2.4-0.8-3.6c-0.2-1.1,0-2.2-0.2-3.2c-0.5-3-1.1-5.9-1.6-8.9c-0.7-3.5-1.2-7-2.1-10.5
			C254.1,26.2,252.7,24.2,251.7,21.8z M290.8,132.3c-0.2,0.1-0.3,0.3-0.5,0.4c-0.6,3.7-1.2,7.3-1.9,11c-0.8,4.2-0.7,8.1,1.6,11.9
			c1.4,2.3,2.6,4.8,4.1,7c1.9,2.6,4.6,4.2,7.8,4c5.1-0.4,10.3-1.2,15.4-1.8c0.5-0.1,1-0.2,1.4-0.4c1.8-0.7,2.2-2.5,0.7-3.7
			c-0.6-0.5-1.5-1-2.3-1.1c-4.1-0.5-8.2-0.8-12.4-1.2c-1.6-0.1-3.1,0.1-4.7-0.1c-0.7-0.1-1.9-0.8-2-1.4c-0.6-3.1-0.9-6.2-1.2-9.3
			c-0.3-4.2-1.5-8.2-3.6-11.9C292.6,134.3,291.6,133.4,290.8,132.3z M141.4,171c0.1,0,0.3-0.1,0.4-0.1c-0.9-3.7-1.8-7.5-2.7-11.2
			c-1.2-4.8-4.2-8.2-8.2-10.8c-0.3-0.2-1.4,0.2-1.5,0.4c-0.2,2-0.4,4.1-0.4,6.1c0,0.9,0.5,1.8,0.6,2.7c0.2,1.6,0.1,3.2,0.4,4.7
			c0.3,2.3,1.1,4.5,1.2,6.7c0.2,5.1,2.1,9.6,4.6,13.8c0.8,1.4,2.7,2.3,4.2,3.2c0.4,0.3,1.6,0,2-0.4c1-1.2,2-2.6,1.6-4.4
			c-0.3-1.3-0.6-2.6-0.9-4C142.2,175.6,141.8,173.3,141.4,171z M403,100.7c-0.2-2.4-0.1-5.1-0.5-7.8c-0.7-4.3-3.2-7.2-7.2-8.9
			c-0.9-0.4-1.4-0.1-1.7,0.8c-0.4,1.4-0.9,2.7-1.1,4.1c-0.6,5.3-1.4,10.5-1.4,15.9c-0.1,5.1,2.4,8.5,5.3,12c0.5,0.6,2.3,0.8,3,0.4
			c1.8-1,3-2.7,3.1-5C402.6,108.5,402.8,104.8,403,100.7z M134.9,31.5c0,2.9-0.1,5.6,0,8.4c0.2,3.7,0.2,7.4,0.8,11.1
			c0.7,4.4,1.2,8.9,3.9,12.7c1.6,2.2,4,3.3,5.5,1.8c0.8-0.8,1.3-2.2,1.3-3.4c0.1-7.8-1.2-15.3-3.1-22.8
			C142.4,35.4,138.3,31.5,134.9,31.5z M57.3,101.3c-0.2,0.1-0.4,0.2-0.6,0.3c0.4,5.4,0.5,10.8,1.1,16.1c0.6,4.4,1.9,8.7,4.1,12.7
			c1.5,2.9,3.8,4.3,6.9,3.9c0.2-2.4,0.5-4.8,0.5-7.3c0-1.8-0.1-3.6-0.4-5.4c-0.4-3.3-0.8-6.6-1.5-9.8c-0.3-1.5-1-3.2-2.1-4.2
			C62.8,105.2,60,103.3,57.3,101.3z M31.3,70.3c2.3,0,3.4-1,3.2-2.5c-0.6-3.1-1.2-6.2-1.8-9.2c-0.5-2.2-1.5-4.4-1.4-6.6
			c0.1-3.7-1-7-1.9-10.4c-0.4-1.8-2.4-3.1-3.9-2.8c-2.2,0.5-3.9,2.9-3.5,4.7c0.5,2,1.1,4,1.2,6c0.3,4.3,1.6,8.4,2.1,12.6
			c0.5,3.5,2.3,5.6,4.7,7.7C30.4,70.1,31.1,70.3,31.3,70.3z"/>
		<path d="M90.6,148.9c4.7-0.2,9,0.8,13.3,2.8c7,3.3,13.2,7.7,18,13.7c3.7,4.7,4,8.8,0,14.1c-2.2,2.9-4.7,5.3-7.9,7.2
			c-5,3-10.2,5.3-15.9,6.5c-1.8,0.4-3.1-0.6-4.2-1.4c-2.5-1.8-4.7-3.8-7.1-5.8c-0.9-0.8-1.9-1.6-2.7-2.5c-0.9-1.1-2-2.3-2.3-3.6
			c-1.4-7-2.6-14.1-3.8-21.2c-0.2-1.1-0.4-2.1-0.4-3.2c0.1-3,2.3-4.2,4.6-5.4C84.9,148.6,87.8,149,90.6,148.9z M88.6,163.3
			c0.3,2.7,0.5,6,1.2,9.2c0.6,3,1.9,5.9,2.8,8.9c0.5,1.6,1.2,2,2.7,1.2c1.9-0.9,3.6-2.1,5.5-2.9c4.4-1.8,7.4-5.1,10.2-8.6
			c1.5-1.9,2.2-4.9,0.4-7c-1.4-1.7-2.9-3.3-4.5-4.8c-2.3-2.1-5.1-3.3-7.9-4.5c-3.4-1.5-6.2-0.7-9,1.2c-0.4,0.2-0.6,0.8-0.7,1.2
			C89,159,88.9,160.9,88.6,163.3z"/>
		<path d="M400,23.2c0.8-0.6,1.2-2.7,2.9-2.5c0.6-0.8,1-1.5,1.5-1.9c4.2-3.1,8.9-4.3,14-3.1c3.3,0.8,5.6,2.9,7.7,5.5
			c1.8,2.3,2.4,5,2.7,7.7c0.1,1.5-0.4,3.3-1.3,4.5c-2.9,3.8-6.1,7.4-11.6,7.3c-1.7,0-3.5,0.6-5.2,1.1c-0.3,0.1-0.6,1.3-0.4,1.5
			c1.5,1.5,2.9,3.3,4.8,4.2c4.7,2.4,9.1,5.4,13.1,8.8c1.2,1,1.7,2.2,0.8,3.4c-0.9,1.3-2.1,0.9-3.3,0.1c-3.5-2.3-6.9-4.8-10.5-6.9
			c-3.4-2-6.3-4.5-9-7.3c-0.6-0.6-0.7-1.6-1.2-2.2c-0.5-0.6-1.2-0.9-1.9-1.3c-0.3,0.5-0.7,1.1-0.8,1.7c-0.4,4.3-0.8,8.7-1.2,13
			c-0.2,2.3-1.1,4-3.7,4c-0.7,0-1.4-0.5-2-1c-1-0.8-2-1.7-2.8-2.6c-0.5-0.6-1.1-1.3-1.1-2c-0.2-6.3,0.7-12.4,2.4-18.4
			c0.2-0.7,0.9-1.2,1.4-1.8c0.3-0.3,0.6-0.6,0.7-1c1.2-2.8,2.5-5.6,3.7-8.5C400.1,25.1,400,24.3,400,23.2z M420.5,24.3
			c-0.7-1.2-1.4-2.5-2.3-3.7c-0.2-0.3-1.1-0.4-1.5-0.3c-1,0.3-1.9,0.8-2.8,1.3c-4.8,2.9-7.4,7.5-9.2,12.6c-0.5,1.3,0.3,2.1,1.6,1.6
			c2.7-1,5.5-1.9,8.1-3.2C417.7,31,419.4,28.1,420.5,24.3z"/>
		<path d="M284.6,62.1c-1.6,0.3-2.4-0.9-3.1-2.1c-1.2-2.1-2.1-4.5-4.3-5.9c-0.3-0.2-0.5-1.1-0.4-1.6c0.9-4.8,1.8-9.5,3.8-14.1
			c1.9-4.4,4.2-8.5,7.5-11.9c2.1-2.2,4.7-3.3,7.9-3.4c2.7-0.1,5.2,0.3,7.2,1.8c1.9,1.4,3.6,3.4,4.8,5.5c1.7,3.2,3,6.6,4.2,10
			c0.9,2.5,1.9,5.1,2.3,7.7c0.5,3.8,0.7,7.7,0.7,11.6c0,1.1-1.1,3.1-1.9,3.2c-1.3,0.2-3.2-0.4-4.2-1.4c-3.6-3.5-5.1-7.9-5-12.9
			c0-0.4,0-0.9,0-1.3c-0.1-3-2.1-4.2-4.9-3.2c-2.9,1.1-5.9,1-8.8,0.2c-1.3-0.4-1.7-0.1-1.7,1.1c-0.1,1.1-0.4,2.2-0.5,3.3
			c-0.2,3.2-0.5,6.4-0.3,9.7C287.8,60.9,287.1,62.1,284.6,62.1z M301.1,39.6c1.2,0.4,1.6-0.3,1.3-1.3c-0.3-1.1-0.7-2.1-1.1-3.2
			c-0.7-2-1.3-4-2.1-5.9c-0.5-1.2-1.4-1.8-2.3-0.4c-2.2,3.2-4.3,6.4-6.3,9.8c-0.6,1.1,0.1,1.6,1.3,1.5
			C295,39.9,298.1,39.7,301.1,39.6z"/>
		<path d="M165.3,41.5c-0.6,1.5-1.4,3-1.9,4.6c-1.5,4.6-1.1,9.4-1.2,14.2c0,1.1-0.4,2.3-1,3.3c-0.9,1.5-2.2,1.1-3.6,0.2
			c-2.3-1.5-2.6-3.4-2.2-5.9c0.5-3,0.2-6.2,0.9-9.2c0.8-3.4,2.2-6.6,3.8-9.7c1.5-2.9,5.8-3.7,9.1-2.8c2.5,0.7,3.7,2.5,5,4.4
			c0.7,1,1.2,1.7,2,0c0.9-2,2.1-4,3.3-5.9c1.6-2.7,5.8-6.4,11.1-5c4.6,1.2,6.5,4.5,7.9,8.4c0.7,1.9,1.1,3.9,1.9,5.8
			c1.4,3.4,1.5,7,1.8,10.5c0.2,2-0.2,4.1-0.5,6.1c-0.2,1.4-0.9,3.1-2.6,2.9c-1.4-0.1-3-0.8-4-1.8c-2.8-2.8-3.2-6.5-3.7-10.2
			c-0.7-5.2-1.5-10.4-2.3-15.5c-0.1-0.7-0.8-1.2-1.2-1.8c-0.4,0.5-0.7,1.1-1.1,1.6c-2.6,3.6-3.1,7.9-4.6,11.9
			c-0.7,1.8-0.6,3.9-1,5.8c-0.7,3.9-2,4.6-5.3,2.4c-1.8-1.2-3.7-2.7-4.9-4.5c-1.6-2.4-2.6-5.2-3.9-7.8c-0.3-0.7-0.7-1.3-1.1-2
			C165.8,41.5,165.6,41.5,165.3,41.5z"/>
		<path d="M281.3,167.1c-1.2-0.5-2.3-0.7-3.1-1.2c-4.5-3.1-9-6.2-13.5-9.3c-0.8-0.6-1.3-1.5-2-2.1c-0.8-0.7-1.5-0.4-1.5,0.6
			c-0.1,3.5-0.2,7,1.3,10.4c0.4,1-0.5,2.5-0.8,3.7c-1-0.3-2.2-0.4-3-0.9c-2.3-1.6-3.9-3.8-4.7-6.6c-0.1-0.3-0.4-0.4-0.6-0.6
			c-1.8-1.5-3.2-3-2.8-5.9c0.5-4.3,0-8.8,0.2-13.2c0.1-2.1,0.5-4.4,1.5-6.2c2.1-4,6.1-5.6,10.2-7c3.6-1.3,7.1-0.2,10.6,0.6
			c3.9,0.9,6.2,4,7.6,7.5c1.6,3.9-0.8,11-4.5,13c-1.9,1-4.1,1.3-6.2,1.9c-0.7,0.2-1.4,0.6-2.2,0.9c0.4,0.7,0.7,1.7,1.3,2.1
			c2.4,1.7,4.9,3.3,7.3,5c1.7,1.2,3.4,2.4,5.1,3.6C283.2,164.4,281.5,165.4,281.3,167.1z M272.2,135.2c0-1.7-0.7-2.5-2.5-2.3
			c-0.8,0.1-1.6,0.4-2.3,0.8c-2.9,1.7-6.1,3.1-7,6.9c-0.8,3.7-0.5,4,3.1,3.5C268.1,143.4,272.2,138.5,272.2,135.2z"/>
		<path d="M468,46c-5.3-0.4-10.1-0.8-15-1.1c-0.2,0-0.5-0.1-0.7-0.2c-2.6-0.9-3.5-0.3-3.6,2.4c0,0.8-0.3,1.6-0.4,2.4
			c-0.3,2.3,0.7,3.5,3,3.7c1.6,0.1,3.3,0,4.8,0.4c2.1,0.6,4.2,1.5,6.2,2.6c1.3,0.7,0.7,3.4-0.7,4c-2.2,1-4.4,2.1-6.9,1.9
			c-5.2-0.5-9.2-2.9-11.6-7.7c-1-2.1-2.1-4.2-3.5-6.1c-1.1-1.5-1.2-3-0.7-4.6c1.8-5.5,2.4-11.2,2.8-16.9c0.3-3.1,4-6.1,7.8-6.7
			c5.8-0.9,11.5,0.1,17.1,1c1.5,0.2,3.2,0.3,4.7,0.1c2.1-0.2,5,1.4,5.7,3.3c0.3,1,0.3,2-0.9,2.5c-1.7,0.8-3.5,1.6-5.5,1.2
			c-4.2-0.7-8.4-1.3-12.6-2c-2.6-0.5-5,0.7-5.7,3.2c-0.6,2.1-1.1,4.3-1.5,6.4c-0.1,0.4,0.6,1.3,1,1.3c2.9,0.4,5.9,0.4,8.9,0.9
			c3.3,0.5,6.6,1.1,9.7,2c0.9,0.2,1.9,1.6,2,2.5c0.1,1.7-1.6,3.2-3.2,3.3C468.7,46,468.1,46,468,46z"/>
		<path d="M52.6,128.1c0.5,5.7-2.2,10-7.3,13c-3.4,2-9.4,1.2-12.3-1.7c-0.3-0.3-0.5-0.7-0.6-1.1c-0.6-1.7-1.4-3.2-3.3-4
			c-1.4-0.6-2.3-1.7-2.7-3.3c-1.1-4.3-2.4-8.5-3.6-12.8c-0.5-2-0.9-4.1-1.2-6.1c-0.2-2,1-3.5,2.4-4.6c5.4-3.8,14.2-4.3,19.3-0.2
			c2.7,2.1,4.8,4.8,6,8.1c0.3,0.8,0.7,1.6,1.1,2.3C52.5,120.9,52.6,124.4,52.6,128.1z M42.6,124.1c-1.2-2.8,0-5.5-1.8-7.9
			c-1.3-1.7-2.2-3.7-3.4-5.4c-0.3-0.4-1.2-0.7-1.8-0.6c-1.3,0.3-2.6,3.4-2.2,4.7c0.7,2.6,1.1,5.2,1.8,7.8c0.6,2.4,1.1,4.8,2,7.2
			c0.5,1.5,1.9,1.6,2.7,0.3C41,128.2,41.8,126,42.6,124.1z"/>
		<path d="M385.6,42c0.7,3.5-0.9,6.6-2.4,9.5c-2.4,4.5-6.4,7.7-11.3,8.9c-2.2,0.5-5.1-0.7-7.4-1.7c-2.1-0.9-4.1-2.3-5.9-3.7
			c-1.6-1.2-3-2.7-4.4-4.2c-1.2-1.3-2.4-2.7-3.5-4.1c-2-2.6-1.5-5.6-0.8-8.4c0.9-3.5,2.7-6.7,5.7-8.9c2-1.5,4.4-2.7,6.7-3.5
			c4.6-1.6,9.2-1.3,13.8,0.3c4.5,1.6,7.2,4.8,8.6,9.3c0.7,2.1,1,4.3,1.4,6.4C385.9,41.9,385.7,42,385.6,42z M359,45
			c0.3,1.9,0.5,3.8,0.9,5.7c0.1,0.3,0.9,0.7,1.3,0.7c5.5-0.3,9.5-3.3,12.6-7.5c2.5-3.3,2.7-7.2,1.5-11.1c-0.7-2.3-1.8-2.9-4-2.1
			c-1.4,0.5-2.8,1-4.1,1.6C361.7,34.7,359.5,39.3,359,45z"/>
		<path d="M450.7,123.9c-2.1,0.2-3.6-0.2-4.5-2.2c-0.5-1-1.8-1.6-3-2.8c0.4-2.8,0.8-6.1,1.5-9.2c0.5-2,1.4-3.9,2.4-5.7
			c0.4-0.7,1.5-1.3,2.3-1.4c2.8-0.3,5.5-0.2,8.1,1.1c3,1.6,4.1,4.6,5.7,7.1c1.4,2.2,2.7,4.6,4.2,6.7c1,1.4,2.1,1.3,2.7-0.4
			c1.2-3.1,2.3-6.4,3.5-9.5c0.5-1.3,0.5-2.6,2.2-3.4c0.7-0.4,1.2-2.7,0.7-3.7c-0.8-1.7-0.1-3,0.4-4.3c0.5-1.1,4.1-1.3,5.1-0.6
			c0.4,0.2,0.8,0.4,1.2,0.5c2.2,0.4,3.2,1.3,3.1,3.6c-0.1,2.5-0.2,5-0.7,7.4c-0.9,4.2-2.1,8.3-3.4,12.4c-0.7,2.1-1.6,4.1-2.6,6.1
			c-1.6,3.2-5.4,4-8.7,2.4c-3.1-1.6-5-4.2-7.2-6.7c-2.6-3-5-6.3-7.5-9.4c-0.4-0.5-1.4-1.2-1.9-1c-0.7,0.3-1.4,1.1-1.6,1.8
			C452,116.4,451.4,120.1,450.7,123.9z"/>
		<path d="M413,113.9c1.5-0.6,1.5-1.5,0.6-2.6c-1.3-1.5-2.6-3-3.8-4.5c-1.6-1.9-1.5-4.1-0.6-6.2c0.3-0.8,1.5-1.1,2-1.9
			c1.4-2,2.2-4.5,3.9-6.2c1.2-1.2,3.4-1.9,5.2-2c4.6-0.4,9.2,0.2,12.8,3.5c1.8,1.6,3.3,3.7,4.6,5.8c3.1,4.8,5,10,3,15.8
			c-0.9,2.7-2.7,4.9-5.5,6.2c-1.8,0.8-3.5,1.9-5.3,2.6c-1.7,0.6-3.5,0.7-5.3-0.5c-1.4-1-3-1.5-4.6-2.1c-2.5-1-4.1-3-5.6-5.2
			C413.9,115.7,413.6,114.8,413,113.9z M431.9,104.6c0.1-3-1.5-5-2.7-7.1c-0.7-1.2-1.8-1.6-3-1.3c-4.6,1.1-7.4,5-8,9.4
			c-0.4,2.7,1.1,5,1.9,7.4c0.2,0.6,1.5,1.2,2.2,1.1c3-0.5,5.6-2,7.3-4.4C430.8,108.2,432.4,106.6,431.9,104.6z"/>
		<path d="M235.1,162.4c-0.1-3.9-1.2-3.3-3.7-2.9c-2.2,0.3-4.5,0.2-6.7-0.1c-1.9-0.3-2.7-0.3-3.2,1.7c-0.6,2.8-0.9,5.6-1.6,8.3
			c-0.2,0.9-0.9,2-1.7,2.3c-0.7,0.3-2,0-2.7-0.5c-1.5-1.2-2.8-2.7-4.1-4.1c-0.2-0.2-0.3-0.8-0.2-1.2c1-4.1,1.9-8.3,3.2-12.3
			c1.6-4.7,4.3-8.7,8.6-11.3c2.5-1.5,5.4-1.9,8.3-1.5c3.2,0.4,6.3,1.1,8.4,3.9c1.8,2.5,3.4,5.1,3.9,8.2c0.4,2.6,0.9,5.2,1.6,7.8
			c0.9,3.2,0.9,6.5,0.5,9.7c-0.1,1.1-1.3,2.8-2.3,3c-1.1,0.2-2.7-0.6-3.7-1.5c-1.6-1.3-2.9-3-4.3-4.6c-0.2-0.2-0.3-0.5-0.3-0.8
			C235,165.1,235.1,163.7,235.1,162.4z M227.3,154.3c2-0.2,3.6-0.5,5.2-0.5c1.3,0,1.6-0.7,1.4-1.8c-0.3-1.8-0.8-3.6-1.1-5.4
			c-0.2-1.2-1-1.3-1.7-0.7c-1.9,1.4-3.7,2.8-5.4,4.5c-0.8,0.8-1,2.1-1.4,3.2C225.4,153.9,226.5,154.2,227.3,154.3z"/>
		<path d="M356.9,96.4c1.9,0.6,3.4,1,4.8,1.5c3.7,1.2,4,1.2,6-1.9c1.1-1.7,1.7-3.7,2.4-5.6c0.5-1.2,0-2.1-1.1-2.6
			c-1.1-0.5-2.3-1-3.4-1.3c-1.6-0.5-3.4-0.7-5-1.3c-0.8-0.3-1.8-0.6-2.2-1.9c-0.3-1-1.9-1.5-3.5-2.6c2.2,0,4,0,5.7,0
			c1.5,0.1,3.1,0,4.6,0.4c4.1,0.9,8,2.5,11,5.7c0.7,0.8,1.3,1.6,2,2.4c1.7,2,1.8,4.3,1.4,6.8c-0.2,1.4,0.4,3-1,4.2
			c0.5,0.5,0.9,1.1,1.4,1.6c0.7,0.6,1.9,1,2.1,1.8c0.6,1.7-0.5,3-2.4,3.2c-0.7,0-1.4,0.1-2.1,0c-1.7-0.2-2.7,0.6-3.4,2
			c-1.5,2.8-3,5.6-4.4,8.5c-0.5,1.1-1.4,2.4-0.2,3.5c2.2,1.9,5.3,2.1,6.9,0.7c0.2-0.2,0.3-0.4,0.6-0.7c1.3,1.2,2.7,2.2,3.7,3.5
			c0.5,0.6,0.5,2,0.1,2.7c-0.4,0.8-1.7,1.9-2.3,1.7c-3.9-1-7.9-1.8-11.4-3.5c-2.4-1.2-4-3.9-6.1-5.8c-5.2-4.8-2.3-9.4,0.1-14.1
			c0.3-0.6,0.8-1.1,0.9-1.6c0.1-0.6-0.1-1.3-0.5-1.8c-0.7-1.1-1.5-2.2-2.3-3.2C358.8,97.9,358,97.4,356.9,96.4z"/>
		<path d="M311.4,10.9c2.6,0.2,4.8,0.2,7.1,0.4c2.2,0.2,4.3,0.6,6.4,0.7c3.6,0.1,7.2-0.1,10.7,0.1c4.7,0.2,9.5,0.4,14.2,0.8
			c1.6,0.1,3.2,0.9,4.7,1.6c0.5,0.2,1.1,1.1,1,1.6c-0.1,0.8-0.5,1.8-1.1,2.4c-2.1,2.1-4.9,1.1-7.4,1.4c-2.2,0.3-4.5,0.1-6.7,0.1
			c-2.2,0-2.6,0.5-1.9,2.5c1.6,4.2,1.9,8.5,1.7,12.9c-0.1,3.4-0.1,6.8,0.1,10.2c0.2,3.1-1,5.9-2.1,8.6c-0.2,0.6-1.7,1.4-2.2,1.2
			c-1.2-0.5-2.2-1.4-3.1-2.3c-3-3.5-2.7-8-3-12.2c-0.4-6-0.4-12.1-0.5-18.1c0-0.5,0.4-1.2,0.2-1.6c-0.2-0.6-0.6-1.4-1.1-1.5
			c-2.9-0.6-5.8-1-8.6-1.7c-1.3-0.3-2.6-1.1-3.7-2C314.7,14.4,313.2,12.7,311.4,10.9z"/>
		<path d="M342.9,167.4c-7.1-0.5-13.2-2.8-17.1-9.2c-1.7-2.8-3.1-5.9-3.6-9c-0.3-2.3,1.1-4.9,1.8-7.3c0.2-0.7,0.7-1.3,0.8-2
			c0.4-4.4,5-6.3,9.1-5c1.1,0.3,2.2,0.4,3.3,0.5c7.2,0.7,11.9,5.2,15.8,10.7c0.8,1.1,1.9,2.1,2.7,3.3c2,3,1.8,7.2-0.2,10.1
			c-1.1,1.5-1.9,3.3-3.2,4.5C349.9,166.5,346.6,167.6,342.9,167.4z M336.9,158.8c4.4,0.3,7.1-2.3,9.1-5.7c0.8-1.3,1.7-3,0.8-4.7
			c-0.8-1.5-1.4-3.1-2.4-4.4c-0.8-0.9-2-1.7-3.2-2c-2-0.5-4.1-0.8-6.2,0.2c-0.6,0.3-1.5-0.2-2.2-0.1c-0.5,0.1-1.3,0.5-1.3,0.9
			c-0.1,1.7-1.1,3.1-1.4,4.5c-0.6,2.5-0.4,5.3,0,7.8c0.2,1.1,1.7,2.2,2.9,2.8C334,158.7,335.5,158.6,336.9,158.8z"/>
		<path d="M257.1,110.8c0,0.4,0,0.8,0,1.1c0.1,1.5,0,3-1.5,3.6c-1.5,0.6-3.9-0.6-4.8-2.2c-0.1-0.2-0.2-0.5-0.4-0.6
			c-2.4-1.1-2.9-2.9-2.2-5.4c1-3.5,1.7-7.1,2.6-10.6c0.6-2.2,2.5-3.1,4.4-3c2.7,0.1,5.6-0.3,7.9,1.8c1.5,1.4,3.1,2.8,4.6,4.3
			c0.8,0.8,1.6,1.8,2.4,2.6c1,0.9,1.9,0.6,2.1-0.7c0.6-4.8,1.2-9.7,1.9-14.5c0.2-1.3,0.5-2.5,0.9-3.8c0.5-1.6,3.7-2.6,5.1-1.8
			c0.3,0.2,0.7,0.3,1,0.4c2.4,0.3,3.2,1,3.3,3.4c0.1,4.6,0.5,9.3-0.7,13.8c-0.1,0.5,0,1,0,1.5c-0.1,3.6-0.2,7.2-0.4,10.8
			c-0.1,1.8-1.7,2.6-3.3,2.2c-3.9-0.9-6.6-3.8-9.7-5.9c-3.3-2.2-6.3-5-9.4-7.4c-1-0.8-1.9-0.8-2.2,0.6c-0.7,3.2-1.3,6.5-1.9,9.8
			C256.8,110.8,257,110.8,257.1,110.8z"/>
		<path d="M351.5,111.3c0,0.7,0.3,1.6-0.1,2.2c-0.6,1-1.3,2.5-2.2,2.7c-1.3,0.2-3-0.2-3.6-2c-0.1-0.4-0.4-1-0.7-1.2
			c-2.5-1.2-3.2-3.5-3.8-5.8c-0.6-2.3-0.9-2.4-3.2-2.1c-1.5,0.2-3,0.5-4.4,0.4c-1.5-0.1-3-0.6-4.4-1.1c-1.3-0.5-1.8-0.1-2,1.2
			c-0.2,2.1-0.5,4.3-0.8,6.4c-0.2,1.4-2.7,2.4-3.7,1.4c-1.9-1.9-4-3.7-5.1-6c-0.6-1.3,0.1-3.5,0.7-5.1c1.2-3.5,2.5-7.1,4.2-10.4
			c1.2-2.4,2.9-4.8,4.9-6.6c1.1-1.1,3.3-1.7,4.9-1.4c3.5,0.5,7.5,0.2,9.8,3.5c1.6,2.2,2.7,4.7,3.8,7.2c1.5,3.5,2.9,7.1,4.2,10.6
			c0.7,2,1.2,4.1,1.7,6.1C351.8,111.2,351.6,111.3,351.5,111.3z M336.5,99.8c1.5,0,1.9-0.3,1.5-1.4c-0.8-2.3-1.6-4.7-2.6-6.9
			c-0.4-0.9-1.3-1.5-2-0.4c-1.3,1.8-2.5,3.7-3.4,5.7c-0.9,1.9-0.1,3.1,2.1,3.1C333.5,99.8,335,99.8,336.5,99.8z"/>
		<path d="M199.9,119.1c-3-0.5-5.8-1.2-7.2-4.4c-0.6-1.3-1.7-2.4-2.6-3.6c-0.6-0.8-0.7-1.4,0.4-1.6c1.6-0.3,3.2-0.7,4.8-0.7
			c3.2,0,6-1.1,8.7-2.5c0.5-0.2,1-0.9,1-1.3c0-0.4-0.7-1-1.2-1.2c-2.1-0.9-4.2-1.8-6.3-2.6c-2.8-1.2-4.6-3.4-6.3-5.9
			c-0.9-1.3-1.9-2.6-2.7-3.9c-1.2-2.1-1.2-6.1,1.8-9.1c3.1-3.2,6.6-3.1,10.2-2.2c2.5,0.6,4.9,1.8,7.3,2.8c0.5,0.2,0.9,1,0.9,1.6
			c0,0.4-0.7,1-1.2,1.1c-3.4,0.7-5.7,3-7.9,5.4c-1,1-1.8,2.4-2.2,3.7c-0.6,1.6,0.8,2.3,2,2.9c4.2,2.1,8.5,3.9,12.6,6.2
			c3,1.7,3.9,5,2,8.7c-2.2,4.3-6.3,4.9-10.1,6.2C202.5,119,201.2,119,199.9,119.1z"/>
		<path d="M181.9,115.5c-2.3,3-4.7,4.9-7.7,6.1c-3.5,1.4-6.9,1.4-10.2-0.6c-1-0.6-1.7-1.7-2.4-2.7c-1.5-2-2.9-4.1-4.2-6.3
			c-0.5-0.8-0.9-1.8-1-2.7c-0.3-3.3-0.4-6.5-0.8-9.8c-0.6-5.8,2.4-9.5,8.1-11c4.4-1.1,8.8-1.1,13.2-0.9c1.1,0,2.4,0.9,3.3,1.7
			c1,1,0.4,2.3-1.1,2.5c-3,0.3-5.9,0.6-8.9,0.7c-3.9,0.2-7.3,4.6-6.4,8.4c0.3,1.4,1.5,1.4,2.5,1.1c3-0.9,5.9-1.9,8.9-2.6
			c0.9-0.2,2.3,0,3,0.6c0.8,0.6,0.8,1.8,0,3c-2.2,3.4-7.3,5.8-11.6,4.8c-1.8-0.4-2,0-1.5,1.6c0.3,1.2,0.4,2.4,0.4,3.6
			c0,1.4,0.7,1.9,2,1.9c2.4-0.1,4.7-0.3,7.1-0.2C177,114.7,179.3,115.1,181.9,115.5z"/>
		<path d="M212.7,34.9c0.5,1.6,1.1,3.2,1.6,4.9c1.5,5.1,3,10.2,4.6,15.3c0.3,1.1,0.7,2.3,1.2,3.3c0.8,1.4,2.1,1.9,3.7,1.5
			c3-0.7,5.5-2,6-7.3c0.4-4.7,0.9-9.4,1.5-14c0.3-2.2,0.7-4.6,2.9-5.8c1-0.6,1.6-0.7,2.7,0.6c1.7,1.9,1,4.5,2.7,6.2
			c0.3,0.3,0.1,1,0.1,1.5c0,3.7,0.2,7.5,0,11.2c-0.1,2.6-0.3,5.4-1.3,7.8c-0.8,1.9-2.5,3.9-4.3,5c-5.4,3.2-10.8,2.3-15.5-1.4
			c-3.1-2.5-5.2-5.9-6.5-9.7c-1.7-4.9-1.5-10-1.5-15c0-1.3,0.6-2.6,1-3.9C212,34.9,212.4,34.9,212.7,34.9z"/>
		<path d="M236.4,117.4c-4.6-0.2-6.7-3.3-8.7-6.6c-1.1-1.8-2-3.7-3.3-5.3c-1.5-1.9-2-4.2-2.2-6.4c-0.3-3.2-0.7-6.5-0.1-9.5
			c0.5-2.6,2.9-4.6,5.7-5.3c3-0.7,6.1-1.2,9.2-1.4c2.5-0.2,5,0,7.4,0.4c1.2,0.2,2.8,0.6,2.6,2.7c-0.1,1.1-0.5,1.5-1.6,1.5
			c-3.2,0.2-6.4,0.4-9.6,0.7c-2.7,0.3-5.7,3.3-5.7,5.5c0,1.2,0.5,1.6,1.6,1.3c2.3-0.6,4.7-1.1,7.1-1.6c0.9-0.2,1.5-0.1,1.5,1
			c0,1.1,0.5,2.4,0,3.2c-1.3,2.6-3.8,3.7-6.4,4.4c-0.6,0.2-1.2,0.2-1.8,0.4c-0.4,0.1-1,0.6-1,0.7c0.3,1.5,0.6,3,1.3,4.4
			c0.2,0.4,1.5,0.5,2.3,0.5c3.4,0.1,6.7,0.1,10.1,0.1c1.5,0,1.8,1.2,1.4,2.2c-0.4,1.1-0.6,2.3-2.1,2.9c-1.6,0.6-3.1,1.9-4.6,2.7
			C238.5,116.7,237.4,117,236.4,117.4z"/>
		<path d="M122.1,111.6c0.2-5.4,1-11,4-15.6c4.7-7.3,12.6-8.4,18.7-1.5c2.2,2.5,1.7,6-0.5,8.9c-1.8,2.4-4.3,4.1-7,5.2
			c-0.4,0.2-0.8,0.6-0.8,1c0,0.4,0.4,0.9,0.8,1.1c4.6,2.7,9.2,5.3,13.7,8c0.9,0.6,2,1.2,2.5,2.1c0.4,0.7,0.2,1.8,0.3,2.8
			c-0.9,0.1-2,0.5-2.6,0.1c-4.7-2.8-9.3-5.6-13.9-8.6c-2.5-1.6-4.9-3.6-7.3-5.4c-0.9-0.7-1.5-0.3-1.4,0.7c0.4,3.5,1,7,1.2,10.6
			c0.1,1.1-0.3,2.6-1.1,3.4c-0.9,1-3.2,0-4-1.6C122.9,119.4,122.2,115.6,122.1,111.6z M140.2,95.2c0-0.9-2.3-3.3-3.6-2.5
			c-1.5,0.9-3.1,2-4.1,3.4c-1.2,1.7-1.9,3.8-2.8,5.7c-0.2,0.5-0.3,1.4,0,1.6c0.5,0.3,1.3,0.4,1.8,0.2c1.8-0.7,3.7-1.4,5.3-2.5
			C138.6,99.9,140.1,98.3,140.2,95.2z"/>
		<path d="M288.7,76.5c5.9,1.5,12,0.5,18.1,0.7c2.2,0.1,4.4-0.4,6.6-0.3c2.3,0.1,4.7,0.3,7,0.8c1,0.2,2.2,1.1,2.4,2
			c0.2,0.7-0.7,2.2-1.5,2.6c-2,0.8-4.1,1.2-6.2,1.5c-1.8,0.3-3.6,0.3-5.4,0.4c-1.2,0.1-1.6,0.5-0.9,1.7c2,3.2,2.9,6.5,2.6,10.4
			c-0.2,3.8,0.3,7.7-0.1,11.4c-0.1,1.5-1.5,3.1-2.8,4c-0.7,0.5-2.6-0.1-3.5-0.8c-1-0.9-1.6-2.3-2-3.7c-1.9-5.8-3.5-11.7-2.6-18
			c0.1-0.6-0.1-1.2,0-1.8c0.4-2.5,0.1-2.6-2.4-3.3c-2.7-0.7-5.3-1.8-6.9-4.4C290.5,78.6,289.6,77.6,288.7,76.5z"/>
		<path d="M197,171.5c1.1-0.3,3.1-0.6,4.9-1.2c1.7-0.5,2.9,0.1,3.8,1.5c0.9,1.5,0.9,3.7-0.2,4.5c-0.9,0.7-1.9,1.4-2.9,1.7
			c-6.3,1.6-12.4,0.8-17.7-2.9c-3.4-2.3-5.3-5.9-7.1-9.5c-0.9-1.7-1.6-3.6-2-5.5c-0.3-1.3,0.1-2.7,0.2-4.1c0-0.2,0.2-0.5,0.2-0.7
			c0-4.4,3.1-6.5,6.1-8.8c3.5-2.7,7-1.5,10.6-0.8c0.6,0.1,1.5,0.8,1.4,1.2c-0.1,0.8-0.5,1.7-1.1,2.2c-3.5,2.9-5.3,6.7-6.3,11
			c-0.3,1.4-0.7,2.9-1,4.3c-0.2,0.9-0.4,2-0.2,2.9c0.7,3,1.5,3.6,4.6,3.7C192.3,171.1,194.2,171.3,197,171.5z"/>
		<path d="M113.2,69.8c1.8-0.7,3.7-1.4,5.4-2.3c2.1-1.2,2.6-3.4,1.4-5.5c-0.3-0.5-0.9-0.8-1.4-1c-6-2.2-11.4-5.2-15.9-10
			c-3.4-3.7-5.3-8-7-12.4c-0.4-1,0-2.4,0.3-3.6c0.7-3.4,3.3-5.7,5.7-7.9c0.1-0.1,0.3-0.3,0.5-0.2c2.8,0.4,5.6,0.8,8.4,1.2
			c0.1,0,0.1,0.2,0.2,0.3c-2.4,0.9-4.9,1.6-6.4,3.9c-0.2,0.3-0.5,0.7-0.6,1.1c-0.7,2.6-1.8,5-1.8,7.7c0,2.4,0.7,4.6,2.3,6.4
			c1.5,1.7,3.1,3.4,4.9,4.8c1.3,1.1,2.9,1.7,4.4,2.5c3.1,1.7,6.3,3.4,9.4,5.3c1.8,1.1,2.7,5.6,2,8.1c-0.5,1.6-0.9,3.3-1.4,4.9
			c-0.1,0.3-0.3,0.5-0.5,0.7c-4.6,3.4-9.8,5.2-15.5,5.7c-2.4,0.2-3.9-1.3-4.5-3.6c-0.3-1.4-1.1-2.8-1.6-4.2c0.8-0.3,1.7-0.6,2.6-0.8
			c0.3-0.1,0.9-0.2,1.1,0c2.3,2.3,4.8,0.1,7.2,0.4C112.5,71.1,112.9,70.2,113.2,69.8z"/>
		<path d="M96.5,114.2c-0.2,1.2-0.5,1.9-0.3,2.5c0.9,3.5,1.8,6.9,2.8,10.4c0.5,1.8,1.2,3.6-0.3,5.4c-2,0.6-3.1-0.5-3.6-2.2
			c-1.7-5.8-3.4-11.6-3.2-17.7c0.2-5.1,1.7-9.7,5.5-13.4c5.1-5,12.5-4.6,17,1c4.1,5.1,3.7,11.8,0.8,16.4c-1.9,3-4.7,4-8.2,3.6
			c-1-0.1-2.1-0.2-3.1-0.4c-2.7-0.7-4.7-2.3-6.4-4.5C97.3,115.1,97.2,114.9,96.5,114.2z M99.1,112.5c0.5,0,1,0,1.5,0
			c3.6-0.3,6.8-0.9,8.7-4.6c1.3-2.6,1.1-5.2,0.8-7.9c-0.1-0.6-0.9-1.5-1.4-1.6c-1.9-0.1-4-0.4-5.7,0.3c-4.3,1.8-5.9,5.8-7,10
			C95.2,112,95.8,112.5,99.1,112.5z"/>
		<path d="M492.6,132.5c0.5-4.4,1.1-8.5,1.6-12.6c0.6-5.6,1-11.3,2.7-16.7c0.7-2.3,1.9-4.4,2.9-6.6c0.5-1.1,1.1-1.2,2-0.4
			c2.5,2.1,4.4,4.8,5.1,8c0.4,1.7-0.1,3.6-0.3,5.3c-0.4,2.4-1,4.7-1.4,7.1c-0.7,4.7-1,9.6-2,14.2c-0.4,1.9-0.1,4.2-2.3,5.7
			c-1.9,1.3-3.5,1.7-5.2-0.1C494.5,135.1,493.5,133.7,492.6,132.5z"/>
		<path d="M40.3,39.9c-0.2-2.5-0.4-5.1-0.5-7.6c0-0.4,0.3-1,0.6-1.1c2.3-0.7,6.1,2,6.4,4.3c0.2,1.8,0.7,3.6,0.9,5.4
			c0.5,3.5,0.9,7.1,1.3,10.6c0.4,3,0.7,6,1.3,8.9c1,4.5,1.5,4.5,6.2,3.5c3.1-0.6,6.4-0.3,9.6-0.1c0.6,0,1.5,1.2,1.6,1.9
			c0.1,0.7-0.5,2-1.2,2.2c-2.7,1.1-5.3,2.6-8.4,2.4c-1.2-0.1-2.5-0.1-3.7,0c-1.9,0.1-3.4-0.5-5-1.6c-4.7-3.3-7.6-7.7-8.3-13.3
			c-0.6-5.1-1-10.3-1.5-15.5C39.9,39.9,40.1,39.9,40.3,39.9z"/>
		<path d="M251.7,21.8c1.1,2.3,2.4,4.4,3,6.6c1,3.4,1.5,7,2.1,10.5c0.6,3,1.1,5.9,1.6,8.9c0.2,1.1,0,2.2,0.2,3.2
			c0.2,1.2,0.6,2.4,0.8,3.6c0.3,1.9,1.6,2,3.2,2c2.9,0,5.8,0.2,8.6,0.4c1,0.1,1.3,0.6,1,1.7c-1.4,4.4-5.2,7.3-9.6,6.3
			c-2.2-0.5-4.5-2-6-3.7c-3.2-3.6-5.8-7.7-7-12.5c-0.4-1.5-0.9-3-0.9-4.5c-0.1-4.8-0.2-9.5,0-14.3C248.8,27.2,249,24.3,251.7,21.8z"
			/>
		<path d="M290.8,132.3c0.9,1.1,1.9,2,2.5,3.2c2,3.7,3.2,7.7,3.6,11.9c0.3,3.1,0.6,6.3,1.2,9.3c0.1,0.6,1.3,1.3,2,1.4
			c1.5,0.2,3.1,0,4.7,0.1c4.1,0.3,8.3,0.7,12.4,1.2c0.8,0.1,1.6,0.6,2.3,1.1c1.5,1.2,1.2,3-0.7,3.7c-0.5,0.2-0.9,0.4-1.4,0.4
			c-5.1,0.6-10.2,1.5-15.4,1.8c-3.2,0.2-6-1.4-7.8-4c-1.6-2.2-2.7-4.7-4.1-7c-2.3-3.7-2.4-7.7-1.6-11.9c0.7-3.6,1.3-7.3,1.9-11
			C290.5,132.6,290.6,132.5,290.8,132.3z"/>
		<path d="M141.4,171c0.4,2.3,0.8,4.6,1.3,6.9c0.3,1.3,0.6,2.6,0.9,4c0.4,1.8-0.6,3.2-1.6,4.4c-0.3,0.4-1.5,0.6-2,0.4
			c-1.5-0.9-3.3-1.8-4.2-3.2c-2.5-4.2-4.4-8.7-4.6-13.8c-0.1-2.3-0.8-4.5-1.2-6.7c-0.2-1.6-0.2-3.2-0.4-4.7
			c-0.1-0.9-0.6-1.8-0.6-2.7c0-2,0.2-4.1,0.4-6.1c0-0.2,1.2-0.6,1.5-0.4c4,2.6,7,6,8.2,10.8c0.9,3.7,1.8,7.5,2.7,11.2
			C141.7,171,141.5,171,141.4,171z"/>
		<path d="M403,100.7c-0.2,4.1-0.4,7.8-0.5,11.5c-0.1,2.3-1.3,4-3.1,5c-0.7,0.4-2.5,0.2-3-0.4c-2.9-3.5-5.4-6.9-5.3-12
			c0.1-5.4,0.8-10.6,1.4-15.9c0.2-1.4,0.7-2.8,1.1-4.1c0.2-0.9,0.7-1.2,1.7-0.8c4,1.7,6.5,4.7,7.2,8.9
			C402.9,95.6,402.9,98.4,403,100.7z"/>
		<path d="M134.9,31.5c3.4,0.1,7.5,3.9,8.4,7.8c1.9,7.5,3.2,15.1,3.1,22.8c0,1.1-0.5,2.6-1.3,3.4c-1.5,1.5-3.9,0.4-5.5-1.8
			c-2.7-3.8-3.3-8.3-3.9-12.7c-0.5-3.7-0.6-7.4-0.8-11.1C134.8,37.1,134.9,34.4,134.9,31.5z"/>
		<path d="M57.3,101.3c2.7,2.1,5.5,4,8,6.2c1.1,1,1.8,2.7,2.1,4.2c0.7,3.2,1.1,6.6,1.5,9.8c0.2,1.8,0.4,3.6,0.4,5.4
			c-0.1,2.5-0.3,4.9-0.5,7.3c-3,0.4-5.3-1-6.9-3.9c-2.1-4-3.5-8.3-4.1-12.7c-0.7-5.3-0.8-10.7-1.1-16.1
			C56.9,101.4,57.1,101.4,57.3,101.3z"/>
		<path d="M31.3,70.3c-0.1-0.1-0.8-0.2-1.3-0.7c-2.3-2.1-4.2-4.2-4.7-7.7c-0.5-4.2-1.9-8.3-2.1-12.6c-0.1-2-0.7-4-1.2-6
			c-0.4-1.8,1.3-4.2,3.5-4.7c1.5-0.4,3.4,1,3.9,2.8c0.9,3.4,2,6.8,1.9,10.4c-0.1,2.2,1,4.4,1.4,6.6c0.6,3.1,1.3,6.1,1.8,9.2
			C34.7,69.3,33.6,70.4,31.3,70.3z"/>
		<path class="st0" d="M88.6,163.3c0.2-2.4,0.3-4.2,0.6-6.1c0.1-0.4,0.3-1,0.7-1.2c2.8-1.9,5.6-2.7,9-1.2c2.8,1.2,5.7,2.4,7.9,4.5
			c1.6,1.5,3.1,3.1,4.5,4.8c1.9,2.1,1.1,5.2-0.4,7c-2.8,3.5-5.8,6.9-10.2,8.6c-1.9,0.8-3.7,1.9-5.5,2.9c-1.6,0.8-2.3,0.4-2.7-1.2
			c-0.9-3-2.1-5.9-2.8-8.9C89.1,169.3,89,166,88.6,163.3z"/>
		<path class="st0" d="M420.5,24.3c-1.1,3.8-2.8,6.7-6.2,8.3c-2.6,1.2-5.3,2.2-8.1,3.2c-1.3,0.5-2.1-0.3-1.6-1.6
			c1.9-5.1,4.4-9.7,9.2-12.6c0.9-0.5,1.8-1,2.8-1.3c0.5-0.1,1.3,0,1.5,0.3C419.1,21.8,419.8,23.1,420.5,24.3z"/>
		<path class="st0" d="M301.1,39.6c-3.1,0.2-6.2,0.3-9.3,0.5c-1.2,0.1-1.9-0.4-1.3-1.5c2-3.3,4.1-6.6,6.3-9.8
			c0.9-1.3,1.8-0.8,2.3,0.4c0.8,1.9,1.4,3.9,2.1,5.9c0.4,1,0.8,2.1,1.1,3.2C302.7,39.3,302.3,40,301.1,39.6z"/>
		<path class="st0" d="M272.2,135.2c0.1,3.3-4.1,8.2-8.6,8.9c-3.7,0.6-4,0.3-3.1-3.5c0.8-3.8,4.1-5.2,7-6.9c0.7-0.4,1.5-0.7,2.3-0.8
			C271.4,132.7,272.2,133.5,272.2,135.2z"/>
		<path class="st0" d="M42.6,124.1c-0.9,1.9-1.7,4.1-2.8,6.1c-0.8,1.4-2.1,1.2-2.7-0.3c-0.8-2.3-1.4-4.8-2-7.2
			c-0.6-2.6-1.1-5.2-1.8-7.8c-0.3-1.3,1-4.4,2.2-4.7c0.6-0.1,1.5,0.2,1.8,0.6c1.2,1.7,2.1,3.7,3.4,5.4
			C42.7,118.6,41.4,121.3,42.6,124.1z"/>
		<path class="st0" d="M359,45c0.5-5.7,2.8-10.2,8.2-12.8c1.3-0.6,2.7-1.1,4.1-1.6c2.3-0.8,3.4-0.1,4,2.1c1.1,3.9,0.9,7.8-1.5,11.1
			c-3.1,4.2-7.1,7.2-12.6,7.5c-0.4,0-1.2-0.4-1.3-0.7C359.5,48.8,359.3,46.9,359,45z"/>
		<path class="st0" d="M431.9,104.6c0.5,2-1.1,3.6-2.3,5.1c-1.8,2.4-4.3,3.9-7.3,4.4c-0.7,0.1-2-0.5-2.2-1.1
			c-0.8-2.4-2.3-4.7-1.9-7.4c0.6-4.4,3.4-8.3,8-9.4c1.2-0.3,2.3,0,3,1.3C430.4,99.6,432,101.6,431.9,104.6z"/>
		<path class="st0" d="M227.3,154.3c-0.8-0.2-1.9-0.4-3-0.7c0.5-1.1,0.7-2.4,1.4-3.2c1.6-1.7,3.5-3.1,5.4-4.5
			c0.7-0.6,1.5-0.5,1.7,0.7c0.3,1.8,0.7,3.6,1.1,5.4c0.2,1.1-0.1,1.7-1.4,1.8C230.8,153.9,229.3,154.1,227.3,154.3z"/>
		<path class="st0" d="M336.9,158.8c-1.3-0.2-2.8,0-4-0.6c-1.2-0.6-2.7-1.7-2.9-2.8c-0.4-2.6-0.5-5.3,0-7.8c0.3-1.5,1.3-2.9,1.4-4.5
			c0-0.3,0.8-0.8,1.3-0.9c0.7-0.1,1.7,0.4,2.2,0.1c2.1-1,4.2-0.7,6.2-0.2c1.2,0.3,2.4,1.1,3.2,2c1,1.3,1.7,2.9,2.4,4.4
			c0.9,1.8-0.1,3.4-0.8,4.7C344,156.4,341.3,159,336.9,158.8z"/>
		<path class="st0" d="M336.5,99.8c-1.5,0-3,0-4.4,0c-2.1,0-3-1.2-2.1-3.1c1-2,2.2-3.9,3.4-5.7c0.7-1,1.7-0.5,2,0.4
			c0.9,2.3,1.8,4.6,2.6,6.9C338.3,99.4,337.9,99.8,336.5,99.8z"/>
		<path class="st0" d="M140.2,95.2c-0.1,3.1-1.6,4.7-3.3,5.9c-1.6,1.1-3.5,1.8-5.3,2.5c-0.5,0.2-1.4,0.1-1.8-0.2
			c-0.3-0.2-0.2-1.1,0-1.6c0.8-2,1.5-4,2.8-5.7c1-1.4,2.6-2.5,4.1-3.4C137.8,91.9,140.2,94.2,140.2,95.2z"/>
		<path class="st0" d="M99.1,112.5c-3.3,0-3.9-0.6-3-3.9c1.1-4.1,2.7-8.2,7-10c1.7-0.7,3.8-0.4,5.7-0.3c0.5,0,1.3,1,1.4,1.6
			c0.3,2.7,0.5,5.3-0.8,7.9c-1.9,3.7-5.1,4.3-8.7,4.6C100.1,112.6,99.6,112.5,99.1,112.5z"/>
	</g>
</g>
</svg>
